<svg xmlns="http://www.w3.org/2000/svg" viewBox="0 0 1200 300"><defs><style>.cls-1{fill:#2e312e;}</style></defs><g id="Layer_1" data-name="Layer 1"><path class="cls-1" d="M185.66,55.83a93.16,93.16,0,0,0-13.58-2.41,101.24,101.24,0,0,0-15.32,0,90.53,90.53,0,0,0-13.95,2.35c-17.37,4.48-32.23,13.61-45.31,25.75C82.29,95.64,72,112.75,67.91,133.36a130,130,0,0,0-2.35,22.94c0,15.67,3,28.88,6.07,36.49,11.63,28.55,33,45.37,62.38,52.24,9.8,2.29,19.93,1.9,30,1.66,9.79-.24,19.56-.89,29.07-3.61,15.17-4.34,29.52-10.34,41.83-20.64,18.13-15.17,30.06-33.85,31.74-58,1.28-18.46-1.25-36.32-10.48-52.71C240.19,83.39,217.54,63.64,185.66,55.83Zm54.06,154.32c-7.43,8.15-16.83,13.7-26.65,18.45-11.14,5.41-22.71,9.67-35.08,11-7.51.82-15.09,1-22.63,1.51-17.77-.21-34.33-4.45-49.08-14.58-19.83-13.62-30.72-32.87-33.72-56.67-1.7-13.48-1.22-27,2.63-40.07,6.51-22,19-39.87,37.86-53.07,11.89-8.33,24.68-14.17,39.14-16.13A87.76,87.76,0,0,1,213,74.17c23.48,15.07,39.95,35.65,45.9,63.58C264.74,165.06,258.6,189.46,239.72,210.15ZM214.07,164a11.87,11.87,0,0,0-1.33-.08c-8.68,0-63.12.43-81.66.84-4.74.1-9.47.64-14.2.94-1.6.1-2.1.89-1.68,2.38a27,27,0,0,0,.85,2.78c4.08,10.21,10,19,19.18,25.28,13.86,9.55,29.07,11.47,45.09,7.75,19.08-4.42,30.41-17.31,36.76-35.29C218.21,165.35,217.4,164.37,214.07,164Zm-5.54,8.89c-5.88,11.13-13.8,19.81-26.21,23.79-22.89,7.34-43.44.07-57.47-21.18a9.27,9.27,0,0,1-.53-1c-1.17-2.42-.82-3.15,1.81-3.23,8.08-.25,16.17-.47,24.25-.59,14.54-.2,29.08-.32,43.62-.45q6.21-.06,12.41,0a16.14,16.14,0,0,1,2.86.64A19,19,0,0,1,208.53,172.88Zm-17.27-36.06c5,0,8.8-3.42,8.79-7.86a9,9,0,0,0-8.61-8.54c-4.25,0-8.82,4.33-8.79,8.27A8.48,8.48,0,0,0,191.26,136.82Zm-55,0a8.73,8.73,0,0,0,9-8.57c0-4.76-3.76-7.89-9.47-7.9-5,0-6.87,2.29-6.83,8.48C129.06,134.49,131.13,136.77,136.3,136.82ZM392.2,114.1l-23.26,72.15h9.33l5.6-18.88h24.4L414,186.25h9.32L400,114.1Zm-5.95,45.49,9.82-32.81,9.87,32.81ZM496.71,114.1h-23v72.15h9.08V158h14.58q10-.19,15.45-5.82t5.48-16q0-10-5.75-16T496.71,114.1ZM506,146.6q-3.23,3.61-9.28,3.62H482.78V121.88h14a11.35,11.35,0,0,1,9.13,3.92q3.32,3.92,3.32,10.42C509.21,140.73,508.14,144.18,506,146.6Zm85.59-32.5h-23v72.15h9.07V158h14.57q10-.19,15.44-5.82t5.47-16q0-10-5.74-16T591.58,114.1Zm9.27,32.5c-2.15,2.41-5.23,3.62-9.27,3.62H577.66V121.88h14a11.32,11.32,0,0,1,9.12,3.92q3.33,3.92,3.32,10.42C604.07,140.73,603,144.18,600.85,146.6Zm62.9,39.65h9.07V114.1h-9.07Zm83.92-40.49q-6.84-2.43-10.12-5.51a10.09,10.09,0,0,1-3.27-7.65q0-5.55,3-8.63c2-2.06,4.87-3.08,8.54-3.08q6,0,9.28,3.66t3.22,10.36h9.13a23.22,23.22,0,0,0-2.68-11.09,19.33,19.33,0,0,0-7.64-7.88,22.4,22.4,0,0,0-11.31-2.83q-9.29,0-15,5.55a20.25,20.25,0,0,0-3.72,22.91,20.15,20.15,0,0,0,6,6.84,46,46,0,0,0,11.69,5.73q7.64,2.72,10.56,5.6t2.93,8.27a11.41,11.41,0,0,1-3,8.38q-3,3.06-9,3.07-6.45,0-10.19-3.72t-3.75-10.4h-9.13a21.38,21.38,0,0,0,3.06,11.42,20.78,20.78,0,0,0,8.38,7.73,25,25,0,0,0,11.63,2.75q9.83,0,15.53-5.28t5.71-14.05q0-8.32-4.59-13.48T747.67,145.76Zm92.89-31.66h-23v72.15h9.08V158h14.6q10-.19,15.47-5.82t5.49-16q0-10-5.76-16T840.56,114.1Zm9.28,32.5q-3.23,3.61-9.28,3.62h-14V121.88h14a11.37,11.37,0,0,1,9.14,3.92q3.32,3.92,3.32,10.42C853.07,140.73,852,144.18,849.84,146.6Zm75.94-32.5-23.3,72.15h9.34l5.61-18.88h24.44l5.71,18.88h9.34L933.57,114.1Zm-6,45.49,9.84-32.81,9.89,32.81ZM1011,126.66a13,13,0,0,1,11.37-5.77q6.42,0,9.54,3.76t3.73,12.59h9.19q-.49-11.64-6.24-17.89t-16.22-6.24q-11.37,0-18,8.17t-6.58,22.25v13.08q0,14.13,6.4,22.38t17.29,8.25q10.83,0,16.76-6.17t6.54-17.77h-9.19q-.75,9.12-3.88,12.64t-10.23,3.52a12,12,0,0,1-10.8-5.85q-3.7-5.85-3.7-16.8V143.58Q1007,132.44,1011,126.66Zm93.54,51.93V152.92h25.71v-7.81h-25.71V121.78h29.45V114h-38.58v72.44h39.08v-7.82Z"/></g></svg>